# xmcd
#
# Track frame offsets:
#	150
#	17082
#	34153
#	51667
#	64379
#	84920
#	106895
#	122414
#	139544
#	153700
#	167266
#	184680
#	200491
#	218841
#	238392
#	253278
#	268439
#	282160
#
# Disc length: 3932 seconds
#
# Revision: 1
# Processed by: cddbd v1.5.2PL0 Copyright (c) Steve Scherf et al.
# Submitted via: audiograbber 1.83.01
#
DISCID=0f0f5a12
DTITLE=Various Artist - Now That's What I Call A Country Party
DYEAR=2013
DGENRE=Country
TTITLE0=Toby Keith - Red Solo Cup
TTITLE1=Luke Bryan - Country Girl (Shake It For Me)
TTITLE2=Jason Aldean - My Kinda Party
TTITLE3=Jake Owen - Barefoot Blue Jean Night
TTITLE4=Kenny Chesney - Beer In Mexico
TTITLE5=Brad Paisley - Alcohol
TTITLE6=Dierks Bentley - Tip It On Back
TTITLE7=Brantley Gilbert - Kick In The Sticks
TTITLE8=Joe Nichols - Tequila Makes Her Clothes Fall Off
TTITLE9=Billy Currington - Pretty Good At Drinkin' Beer
TTITLE10=Alan Jackson and Jimmy Buffet - It's Five O'Clock Somewhere
TTITLE11=Montgomery Gentry - One In Every Crowd
TTITLE12=Rascal Flatts - Summer Night
TTITLE13=Brooks and Dunn - Hillybilly Deluxe
TTITLE14=Gretchen Wilson - Here For The Party
TTITLE15=Big and Rich - Save A Horse (Ride A Cowboy)
TTITLE16=George Strait - Here For A Good Time
TTITLE17=Jerrod Nieman - One More Drinkin' Song
EXTD=
EXTT0=
EXTT1=
EXTT2=
EXTT3=
EXTT4=
EXTT5=
EXTT6=
EXTT7=
EXTT8=
EXTT9=
EXTT10=
EXTT11=
EXTT12=
EXTT13=
EXTT14=
EXTT15=
EXTT16=
EXTT17=
PLAYORDER=
